PathFileType	4	(X/Y/Z)	/Users/visionmauri/4_2_2_f_1_Sports2D/4_2_2_f_1_Sports2D_m_person00.trc
DataRate	CameraRate	NumFrames	NumMarkers	Units	OrigDataRate	OrigDataStartFrame	OrigNumFrames
30.0	30.0	8	22	m	30.0	81	325
Frame#	Time	Hip			RHip			RKnee			RAnkle			RBigToe			RSmallToe			RHeel			LHip			LKnee			LAnkle			LBigToe			LSmallToe			LHeel			Neck			Head			Nose			RShoulder			RElbow			RWrist			LShoulder			LElbow			LWrist			
		X1	Y1	Z1	X2	Y2	Z2	X3	Y3	Z3	X4	Y4	Z4	X5	Y5	Z5	X6	Y6	Z6	X7	Y7	Z7	X8	Y8	Z8	X9	Y9	Z9	X10	Y10	Z10	X11	Y11	Z11	X12	Y12	Z12	X13	Y13	Z13	X14	Y14	Z14	X15	Y15	Z15	X16	Y16	Z16	X17	Y17	Z17	X18	Y18	Z18	X19	Y19	Z19	X20	Y20	Z20	X21	Y21	Z21	X22	Y22	Z22
81	2.7083333333333335	1.193871099764602	1.0058739958945127	0.0301	1.2800986162606036	0.9921759458589641	0.0301	1.2761554739261183	0.6915496958868999	0.129	1.2961143383120362	0.725230331162439	0.023	1.1890024533339734	0.39334865263066426	0.2179	1.323564908844734	0.6337242582984788	0.1804	1.2789443701324426	0.7329890986280271	-0.0119	1.1104859141156262	1.0106278417185026	0.0301	1.0607977533534583	0.6466208267947031	0.129	0.992224942925187	0.3081091423685274	0.023	1.0178465873772555	0.24432651243010253	0.2179	0.9670212263557385	0.2510439743262317	0.1804	0.9765135520126906	0.24928065208096348	-0.0119	1.3083429537452937	1.4493131346862014	0.0008	1.4500696067120007	1.5890676606174023	0.0655	1.4226020141095181	1.4790535416999189	0.1076	1.4139172831417033	1.383916594079578	-0.01275	1.4723378706754822	1.1394022607559724	0.0702	1.5564763681040974	0.931919882106863	0.1076	1.1433537882651537	1.4410758152932077	-0.01275	0.9609054838434288	1.3157638616482135	0.0702	0.9994098269774239	1.1170600912300275	0.1076
82	2.741769547325103	1.191478840888603	1.0067285864618698	0.0301	1.2768253594282868	0.9917273556527403	0.0301	1.2768187465647576	0.6870576695704622	0.129	1.29378055999303	0.6977647037746814	0.023	1.1663382731330065	0.2674710364405647	0.2179	1.2944758541510757	0.4952547756791904	0.1804	1.2723242636587777	0.6918526092682301	-0.0119	1.1092891826111555	1.0075863984173747	0.0301	1.0607510804650304	0.6479484686103221	0.129	0.9925008123756012	0.3076793382655785	0.023	1.0202165808160277	0.24632350648430998	0.2179	0.966504252229108	0.25192432786772434	0.1804	0.9765788682478795	0.24910688403205078	-0.0119	1.3095500072641202	1.4469169774065491	0.0008	1.4513550654258014	1.5875695996822612	0.0655	1.4254671116609412	1.4749912928391715	0.1076	1.4115942601352347	1.3855003416868743	-0.01275	1.4690814467369158	1.1390466918054627	0.0702	1.5549194401381659	0.929805637533713	0.1076	1.1446266757764318	1.4377850073409506	-0.01275	0.965279020492683	1.3076106892116675	0.0702	1.0180381248745087	1.1153083083164008	0.1076
83	2.7752057613168724	1.189513456037049	1.0068483322272332	0.0301	1.2721358535629765	0.9896942436213276	0.0301	1.2788426942085453	0.6858290728405216	0.129	1.265755689748286	0.5786679450378214	0.023	1.1742450920478131	0.20852121130043336	0.2179	1.2533382018731845	0.2968401913203632	0.1804	1.2355587076074517	0.549124042437282	-0.0119	1.1081931684258235	1.004579874374254	0.0301	1.0618267543609092	0.6512363283066795	0.129	0.9926566652219692	0.309836672455374	0.023	1.0238466201541192	0.2487982177323864	0.2179	0.9665063552524691	0.2541204620606761	0.1804	0.9760423200044861	0.24830760398349977	-0.0119	1.3097218399897692	1.444648037764935	0.0008	1.4545866917130532	1.584944101882163	0.0655	1.427076106306445	1.467674474391265	0.1076	1.4078269701964894	1.3869607117507148	-0.01275	1.466346177810368	1.1403307925968655	0.0702	1.554002487048425	0.9273937677910229	0.1076	1.1461111373835455	1.434989474313379	-0.01275	0.9723196424730198	1.2951346562926431	0.0702	1.0406038713296435	1.1112346766704042	0.1076
84	2.808641975308642	1.1865335069015575	1.0044367315321687	0.0301	1.2663447554134444	0.9864337349292973	0.0301	1.278951598773791	0.6831907596208333	0.129	1.2205678023277322	0.40703936381572503	0.023	1.1980495269613929	0.18323610169383017	0.2179	1.2295846038422154	0.16116171184770878	0.1804	1.1805699931502782	0.3529864036813936	-0.0119	1.1060253773250588	1.001848113636859	0.0301	1.0614008624077174	0.6519231321444471	0.129	0.992597744799659	0.3134128138807083	0.023	1.0284642909216521	0.24973322256912941	0.2179	0.9676069506329177	0.2562680827804912	0.1804	0.9746575451892527	0.24692831711641258	-0.0119	1.3095265426803706	1.4436014680687381	0.0008	1.4581099608357146	1.580021004557309	0.0655	1.4269807620136654	1.4607073402773858	0.1076	1.4017497642197376	1.3891628911088676	-0.01275	1.4621990978979222	1.143005883372576	0.0702	1.5532407902796892	0.9266545713277768	0.1076	1.1482039116412233	1.431850048927043	-0.01275	0.9817377552291561	1.2790581255846163	0.0702	1.066565027960708	1.1090972927231224	0.1076
85	2.8420781893004117	1.1818978797545554	1.0010382010880958	0.0301	1.2600014850257284	0.9838907092209206	0.0301	1.276639844713483	0.6774094278194255	0.129	1.1856499885930896	0.2847826440738525	0.023	1.22221409475014	0.17323208364020087	0.2179	1.2298502642499565	0.13082349789106298	0.1804	1.140574765172841	0.21874077094015046	-0.0119	1.1026436738286407	1.0003373562715716	0.0301	1.0591179204655612	0.6503091714377156	0.129	0.9918556377683978	0.31599824232350815	0.023	1.03155876352567	0.24863772215790314	0.2179	0.9688237379796137	0.2564111562273971	0.1804	0.9729241112035198	0.24586260571293608	-0.0119	1.3106025866547362	1.4441926160466372	0.0008	1.461593791554574	1.574183070705375	0.0655	1.4280487884369641	1.457110660023655	0.1076	1.3954735889349914	1.3916056492431534	-0.01275	1.45676834409115	1.145050951877493	0.0702	1.5520970182374032	0.9261844715728826	0.1076	1.151662530210412	1.428214896511293	-0.01275	0.9930977833318467	1.2610451772223363	0.0702	1.0902788723121657	1.1106454000053916	0.1076
86	2.875514403292181	1.176667657073488	1.0019142623420667	0.0301	1.2541749366968662	0.984564319312744	0.0301	1.2760088849654942	0.6780873430333617	0.129	1.1703599039792065	0.24676194009429905	0.023	1.233097082466413	0.1755679201058964	0.2179	1.2329587255810164	0.14521297174973366	0.1804	1.1253720812156087	0.18053928435555386	-0.0119	1.099157868751283	1.00177356259714	0.0301	1.0576905504984624	0.6509182330069577	0.129	0.9906188806040114	0.3163146299613608	0.023	1.0320234782026032	0.24717910587281777	0.2179	0.9696632382517467	0.2548516066291425	0.1804	0.9721063251982982	0.24614990467212763	-0.0119	1.3113926052601899	1.4452303425637967	0.0008	1.466822257424672	1.5685802136066869	0.0655	1.4322347381452682	1.4531719593671486	0.1076	1.3917742241936433	1.3940008276255693	-0.01275	1.4516975350775245	1.1458714801611782	0.0702	1.5508363759784431	0.9248661184300926	0.1076	1.1569205680930446	1.4257015651654534	-0.01275	1.0067826333179815	1.2431796192617621	0.0702	1.1044651466721314	1.1146531023649036	0.1076
87	2.9089506172839505	1.1716859495100556	1.008956614939468	0.0301	1.2495992645674407	0.9885889926397528	0.0301	1.278955132450684	0.6924413523283186	0.129	1.1648399245738021	0.25550367219269066	0.023	1.2221887356002215	0.1875037998508903	0.2179	1.221026853613364	0.15248392561214077	0.1804	1.1214146954690625	0.19243462300988115	-0.0119	1.0968720546647723	1.004799085454344	0.0301	1.0588053416915841	0.6545923020908437	0.129	0.9895714934375937	0.3151985588317041	0.023	1.0321192286906047	0.24741400060061097	0.2179	0.9706402590500967	0.2533388997027033	0.1804	0.972950380540263	0.24859282876092245	-0.0119	1.310676086952924	1.4460552714382349	0.0008	1.4743483824887764	1.5630219179248954	0.0655	1.4385697279206735	1.445005363339421	0.1076	1.391183945924463	1.3965594938082464	-0.01275	1.4481410494119982	1.1464713295811646	0.0702	1.5502492944096786	0.9237017160612963	0.1076	1.163751309414266	1.4258443999712531	-0.01275	1.0235028283494971	1.2278287542795145	0.0702	1.105329096919711	1.1180669007300297	0.1076
88	2.94238683127572	1.1670018406994382	1.0163348301304747	0.0301	1.2459929546735664	0.9932040903029796	0.0301	1.281122496068141	0.7112319240718372	0.129	1.1700793135213898	0.30625930469865725	0.023	1.198578525381457	0.20798954144046206	0.2179	1.2006502317160666	0.1618181156354033	0.1804	1.1290792435350168	0.25064836588928385	-0.0119	1.0962859735190427	1.006528766308147	0.0301	1.0608182366656227	0.6576600958486719	0.129	0.9891309912300414	0.3142890080102775	0.023	1.0335897615445446	0.24962613219013138	0.2179	0.9719458686389573	0.25279592875658613	0.1804	0.9743067562689592	0.2522426282655695	-0.0119	1.3115400208499988	1.4467408055180104	0.0008	1.4824154041835114	1.558269750655415	0.0655	1.4451510788194881	1.4372879383246753	0.1076	1.3921593761161855	1.3987568045182222	-0.01275	1.4458259482208318	1.147352590491136	0.0702	1.550512671963075	0.9238982579512799	0.1076	1.1717546094516056	1.4289296139350185	-0.01275	1.043887196067361	1.217910792883125	0.0702	1.09777365777572	1.1179119027320665	0.1076
